<svg xmlns="http://www.w3.org/2000/svg" xmlns:xlink="http://www.w3.org/1999/xlink" version="1.1" x="0px" y="0px" viewBox="0 0 100 125" style="enable-background:new 0 0 100 100;" xml:space="preserve"><g><path d="M64.6,44.9c0.2,0,0.4-0.1,0.6-0.2c0.2-0.1,0.4-0.2,0.5-0.3c0.2-0.1,0.3-0.2,0.5-0.4c0.6-0.6,0.9-1.3,0.9-2.1   s-0.3-1.6-0.9-2.1c-0.1-0.1-0.3-0.3-0.5-0.4c-0.2-0.1-0.3-0.2-0.5-0.3c-0.2-0.1-0.4-0.1-0.6-0.2c-0.4-0.1-0.8-0.1-1.2,0   c-0.2,0-0.4,0.1-0.6,0.2c-0.2,0.1-0.3,0.2-0.5,0.3c-0.2,0.1-0.3,0.2-0.5,0.4C61.3,40.4,61,41.2,61,42s0.3,1.6,0.9,2.1   c0.1,0.1,0.3,0.3,0.5,0.4c0.2,0.1,0.3,0.2,0.5,0.3c0.2,0.1,0.4,0.1,0.6,0.2c0.2,0,0.4,0.1,0.6,0.1C64.2,45,64.4,45,64.6,44.9z"/><path d="M38.1,44.1c0.1-0.1,0.3-0.3,0.4-0.5c0.1-0.2,0.2-0.3,0.3-0.5c0.1-0.2,0.1-0.4,0.2-0.6c0-0.2,0.1-0.4,0.1-0.6   c0-0.8-0.3-1.6-0.9-2.1c-0.7-0.7-1.7-1-2.7-0.8c-0.2,0-0.4,0.1-0.6,0.2c-0.2,0.1-0.3,0.2-0.5,0.3c-0.2,0.1-0.3,0.2-0.5,0.4   s-0.3,0.3-0.4,0.4c-0.1,0.2-0.2,0.3-0.3,0.5c-0.1,0.2-0.1,0.4-0.2,0.6c0,0.2-0.1,0.4-0.1,0.6c0,0.8,0.3,1.6,0.9,2.1   c0.1,0.1,0.3,0.3,0.5,0.4c0.2,0.1,0.3,0.2,0.5,0.3c0.2,0.1,0.4,0.1,0.6,0.2c0.2,0,0.4,0.1,0.6,0.1C36.8,45,37.6,44.7,38.1,44.1z"/><path d="M60.6,60.6c-5.8,5.8-15.4,5.8-21.2,0c-0.8-0.8-2-0.8-2.8,0s-0.8,2,0,2.8C40.3,67.1,45.1,69,50,69s9.7-1.9,13.4-5.6   c0.8-0.8,0.8-2,0-2.8S61.4,59.8,60.6,60.6z"/><path d="M68,18H32c-7.7,0-14,6.3-14,14v36c0,7.7,6.3,14,14,14h36c7.7,0,14-6.3,14-14V32C82,24.3,75.7,18,68,18z M68,78H32   c-5.5,0-10-4.5-10-10V42h2.1c0,0.3-0.1,0.7-0.1,1c0,6.6,5.4,12,12,12s12-5.4,12-12c0-0.3,0-0.7-0.1-1h4.1c0,0.3-0.1,0.7-0.1,1   c0,6.6,5.4,12,12,12s12-5.4,12-12c0-0.7-0.1-1.3-0.2-2H78v27C78,73.5,73.5,78,68,78z M28,43c0-4.4,3.6-8,8-8s8,3.6,8,8s-3.6,8-8,8   S28,47.4,28,43z M56,43c0-4.4,3.6-8,8-8s8,3.6,8,8s-3.6,8-8,8S56,47.4,56,43z M78,37h-3.6c-2.1-3.6-5.9-6-10.4-6   c-4.8,0-9,2.9-10.9,7h-6.2c-1.9-4.1-6.1-7-10.9-7s-9,2.9-10.9,7H22v-6c0-5.5,4.5-10,10-10h36c5.5,0,10,4.5,10,10V37z"/></g><text x="0" y="115" fill="#000000" font-size="5px" font-weight="bold" font-family="'Helvetica Neue', Helvetica, Arial-Unicode, Arial, Sans-serif">Created by Shastry</text><text x="0" y="120" fill="#000000" font-size="5px" font-weight="bold" font-family="'Helvetica Neue', Helvetica, Arial-Unicode, Arial, Sans-serif">from the Noun Project</text></svg>