<svg xmlns="http://www.w3.org/2000/svg" xmlns:xlink="http://www.w3.org/1999/xlink" version="1.1" x="0px" y="0px" viewBox="0 0 100 125" style="enable-background:new 0 0 100 100;" xml:space="preserve"><g><path d="M65.8,46.8c-0.1-0.2-0.2-0.3-0.3-0.5c-0.1-0.2-0.2-0.3-0.4-0.5c-0.7-0.7-1.7-1-2.7-0.8c-0.2,0-0.4,0.1-0.6,0.2   c-0.2,0.1-0.4,0.2-0.5,0.3c-0.2,0.1-0.3,0.2-0.5,0.4c-0.1,0.1-0.3,0.3-0.4,0.5c-0.1,0.2-0.2,0.3-0.3,0.5c-0.1,0.2-0.1,0.4-0.2,0.6   c0,0.2-0.1,0.4-0.1,0.6c0,0.2,0,0.4,0.1,0.6c0,0.2,0.1,0.4,0.2,0.6c0.1,0.2,0.2,0.4,0.3,0.5c0.1,0.2,0.2,0.3,0.4,0.5   c0.6,0.6,1.3,0.9,2.1,0.9c0.8,0,1.6-0.3,2.1-0.9c0.1-0.1,0.3-0.3,0.4-0.5c0.1-0.2,0.2-0.3,0.3-0.5c0.1-0.2,0.1-0.4,0.2-0.6   c0-0.2,0.1-0.4,0.1-0.6c0-0.2,0-0.4-0.1-0.6C65.9,47.2,65.8,47,65.8,46.8z"/><path d="M39.8,46.8c-0.1-0.2-0.2-0.3-0.3-0.5c-0.1-0.2-0.2-0.3-0.4-0.5c-0.1-0.1-0.3-0.3-0.5-0.4c-0.2-0.1-0.3-0.2-0.5-0.3   c-0.2-0.1-0.4-0.1-0.6-0.2c-0.4-0.1-0.8-0.1-1.2,0c-0.2,0-0.4,0.1-0.6,0.2c-0.2,0.1-0.4,0.2-0.5,0.3c-0.2,0.1-0.3,0.2-0.5,0.4   c-0.1,0.1-0.3,0.3-0.4,0.5c-0.1,0.2-0.2,0.3-0.3,0.5c-0.1,0.2-0.1,0.4-0.2,0.6c0,0.2-0.1,0.4-0.1,0.6c0,0.2,0,0.4,0.1,0.6   c0,0.2,0.1,0.4,0.2,0.6c0.1,0.2,0.2,0.4,0.3,0.5c0.1,0.2,0.2,0.3,0.4,0.5c0.1,0.1,0.3,0.3,0.5,0.4c0.2,0.1,0.3,0.2,0.5,0.3   c0.2,0.1,0.4,0.1,0.6,0.2c0.2,0,0.4,0.1,0.6,0.1c0.2,0,0.4,0,0.6-0.1c0.2,0,0.4-0.1,0.6-0.2c0.2-0.1,0.4-0.2,0.5-0.3   c0.2-0.1,0.3-0.2,0.5-0.4c0.6-0.6,0.9-1.3,0.9-2.1c0-0.2,0-0.4-0.1-0.6C39.9,47.2,39.8,47,39.8,46.8z"/><path d="M55.9,63.4c-3.2,2.2-8.5,2.2-11.7,0c-0.9-0.6-2.2-0.4-2.8,0.5c-0.6,0.9-0.4,2.2,0.5,2.8c2.3,1.6,5.2,2.4,8.1,2.4   c2.9,0,5.9-0.8,8.1-2.4c0.9-0.6,1.1-1.9,0.5-2.8C58,63,56.8,62.7,55.9,63.4z"/><path d="M68,18H32c-7.7,0-14,6.3-14,14v36c0,7.7,6.3,14,14,14h36c7.7,0,14-6.3,14-14V32C82,24.3,75.7,18,68,18z M78,68   c0,5.5-4.5,10-10,10H32c-5.5,0-10-4.5-10-10V32c0-5.5,4.5-10,10-10h5.6c-0.1,0.3-0.1,0.7-0.1,1.1c0,1.3,0.4,2,0.8,2.6   c0.2,0.4,0.3,0.5,0.3,1c0,0.5-0.1,0.6-0.3,1c-0.3,0.5-0.8,1.3-0.8,2.6c0,1.3,0.4,2,0.8,2.6c0.2,0.4,0.3,0.5,0.3,1s-0.1,0.6-0.3,1   c-0.3,0.5-0.8,1.3-0.8,2.6c0,0.8,0.7,1.5,1.5,1.5s1.5-0.7,1.5-1.5c0-0.5,0.1-0.6,0.3-1c0.3-0.5,0.8-1.3,0.8-2.6   c0-1.3-0.4-2-0.8-2.6c-0.2-0.4-0.3-0.5-0.3-1c0-0.5,0.1-0.6,0.3-1c0.3-0.5,0.8-1.3,0.8-2.6c0-1.3-0.4-2-0.8-2.6   c-0.2-0.4-0.3-0.5-0.3-1c0-0.5,0.1-0.6,0.3-1c0,0,0,0,0-0.1h3.8c-0.1,0.3-0.1,0.7-0.1,1.1c0,1.3,0.4,2,0.8,2.6   c0.2,0.4,0.3,0.5,0.3,1c0,0.5-0.1,0.6-0.3,1c-0.3,0.5-0.8,1.3-0.8,2.6c0,1.3,0.4,2,0.8,2.6c0.2,0.4,0.3,0.5,0.3,1s-0.1,0.6-0.3,1   c-0.3,0.5-0.8,1.3-0.8,2.6c0,0.8,0.7,1.5,1.5,1.5s1.5-0.7,1.5-1.5c0-0.5,0.1-0.6,0.3-1c0.3-0.5,0.8-1.3,0.8-2.6   c0-1.3-0.4-2-0.8-2.6c-0.2-0.4-0.3-0.5-0.3-1c0-0.5,0.1-0.6,0.3-1c0.3-0.5,0.8-1.3,0.8-2.6c0-1.3-0.4-2-0.8-2.6   c-0.2-0.4-0.3-0.5-0.3-1c0-0.5,0.1-0.6,0.3-1c0,0,0,0,0-0.1h3.8c-0.1,0.3-0.1,0.7-0.1,1.1c0,1.3,0.4,2,0.8,2.6   c0.2,0.4,0.3,0.5,0.3,1c0,0.5-0.1,0.6-0.3,1c-0.3,0.5-0.8,1.3-0.8,2.6c0,1.3,0.4,2,0.8,2.6c0.2,0.4,0.3,0.5,0.3,1s-0.1,0.6-0.3,1   c-0.3,0.5-0.8,1.3-0.8,2.6c0,0.8,0.7,1.5,1.5,1.5s1.5-0.7,1.5-1.5c0-0.5,0.1-0.6,0.3-1c0.3-0.5,0.8-1.3,0.8-2.6   c0-1.3-0.4-2-0.8-2.6c-0.2-0.4-0.3-0.5-0.3-1c0-0.5,0.1-0.6,0.3-1c0.3-0.5,0.8-1.3,0.8-2.6c0-1.3-0.4-2-0.8-2.6   c-0.2-0.4-0.3-0.5-0.3-1c0-0.5,0.1-0.6,0.3-1c0,0,0,0,0-0.1h3.8c-0.1,0.3-0.1,0.7-0.1,1.1c0,1.3,0.4,2,0.8,2.6   c0.2,0.4,0.3,0.5,0.3,1c0,0.5-0.1,0.6-0.3,1c-0.3,0.5-0.8,1.3-0.8,2.6c0,1.3,0.4,2,0.8,2.6c0.2,0.4,0.3,0.5,0.3,1s-0.1,0.6-0.3,1   c-0.3,0.5-0.8,1.3-0.8,2.6c0,0.8,0.7,1.5,1.5,1.5s1.5-0.7,1.5-1.5c0-0.5,0.1-0.6,0.3-1c0.3-0.5,0.8-1.3,0.8-2.6   c0-1.3-0.4-2-0.8-2.6c-0.2-0.4-0.3-0.5-0.3-1c0-0.5,0.1-0.6,0.3-1c0.3-0.5,0.8-1.3,0.8-2.6c0-1.3-0.4-2-0.8-2.6   c-0.2-0.4-0.3-0.5-0.3-1c0-0.5,0.1-0.6,0.3-1c0,0,0,0,0-0.1H68c5.5,0,10,4.5,10,10V68z"/></g><text x="0" y="115" fill="#000000" font-size="5px" font-weight="bold" font-family="'Helvetica Neue', Helvetica, Arial-Unicode, Arial, Sans-serif">Created by Shastry</text><text x="0" y="120" fill="#000000" font-size="5px" font-weight="bold" font-family="'Helvetica Neue', Helvetica, Arial-Unicode, Arial, Sans-serif">from the Noun Project</text></svg>