<svg xmlns="http://www.w3.org/2000/svg" xmlns:xlink="http://www.w3.org/1999/xlink" version="1.1" x="0px" y="0px" viewBox="0 0 100 125" style="enable-background:new 0 0 100 100;" xml:space="preserve"><g><path d="M61,56H39c-3.9,0-7,3.1-7,7s3.1,7,7,7h22c3.9,0,7-3.1,7-7S64.9,56,61,56z M49,61.5c0,1.4-1.1,2.5-2.5,2.5   c-1.4,0-2.5-1.1-2.5-2.5V58h5V61.5z M56,61.5c0,1.4-1.1,2.5-2.5,2.5c-1.4,0-2.5-1.1-2.5-2.5V58h5V61.5z"/><path d="M68,18H32c-7.7,0-14,6.3-14,14v36c0,7.7,6.3,14,14,14h36c7.7,0,14-6.3,14-14V32C82,24.3,75.7,18,68,18z M78,68   c0,5.5-4.5,10-10,10H32c-5.5,0-10-4.5-10-10V32c0-5.5,4.5-10,10-10h36c5.5,0,10,4.5,10,10V68z"/><path d="M45,39.7l0.4-0.4c1-1,1.5-2.4,1.5-3.8s-0.6-2.8-1.5-3.8c-2.1-2.1-5.4-2.1-7.4,0h0l0,0c-1-1-2.3-1.6-3.7-1.6   c-1.4,0-2.7,0.6-3.7,1.6c-2,2.1-2,5.5,0,7.6l0.4,0.4L38,46L45,39.7z"/><path d="M57.9,38.9l4.1,3.7l4-3.6l0.2-0.2c0.6-0.6,0.9-1.4,0.9-2.2c0-0.8-0.3-1.6-0.9-2.2c-1.2-1.2-3.1-1.2-4.3,0h0l0,0   c-0.6-0.6-1.3-0.9-2.1-0.9c-0.8,0-1.6,0.3-2.1,0.9c-1.2,1.2-1.2,3.2,0,4.4L57.9,38.9z"/></g><text x="0" y="115" fill="#000000" font-size="5px" font-weight="bold" font-family="'Helvetica Neue', Helvetica, Arial-Unicode, Arial, Sans-serif">Created by Shastry</text><text x="0" y="120" fill="#000000" font-size="5px" font-weight="bold" font-family="'Helvetica Neue', Helvetica, Arial-Unicode, Arial, Sans-serif">from the Noun Project</text></svg>