<svg xmlns="http://www.w3.org/2000/svg" xmlns:xlink="http://www.w3.org/1999/xlink" version="1.1" x="0px" y="0px" viewBox="0 0 100 125" style="enable-background:new 0 0 100 100;" xml:space="preserve"><g><path d="M61,59.5H39c-3.9,0-7,3.1-7,7s9.1,14,13,14c3.2-1.3,6.8-1.3,10,0c3.9,0,13-10.1,13-14S64.9,59.5,61,59.5z M49,66.5   c0,1.4-1.1,2.5-2.5,2.5c-1.4,0-2.5-1.1-2.5-2.5V63h5V66.5z M56,66.5c0,1.4-1.1,2.5-2.5,2.5c-1.4,0-2.5-1.1-2.5-2.5V63h5V66.5z"/><path d="M51.4,49.9c0.1,0.3,0.3,0.6,0.5,0.9c0.2,0.3,0.4,0.5,0.6,0.8c0.2,0.2,0.5,0.4,0.8,0.6c0.3,0.2,0.6,0.3,0.9,0.5   c0.3,0.1,0.6,0.2,0.9,0.3c0.3,0.1,0.6,0.1,1,0.1c0.3,0,0.7,0,1-0.1c0.3-0.1,0.6-0.2,0.9-0.3c0.3-0.1,0.6-0.3,0.9-0.5   c0.3-0.2,0.5-0.4,0.8-0.6c0.2-0.2,0.4-0.5,0.6-0.8c0.2-0.3,0.3-0.6,0.5-0.9c0.1-0.3,0.2-0.6,0.3-0.9c0.1-0.3,0.1-0.7,0.1-1   c0-1.3-0.5-2.6-1.5-3.5c-0.2-0.2-0.5-0.4-0.8-0.6c-0.3-0.2-0.6-0.3-0.9-0.5c-0.3-0.1-0.6-0.2-0.9-0.3c-0.6-0.1-1.3-0.1-1.9,0   c-0.3,0.1-0.6,0.2-0.9,0.3c-0.3,0.1-0.6,0.3-0.9,0.5c-0.3,0.2-0.5,0.4-0.8,0.6c-0.2,0.2-0.4,0.5-0.6,0.8c-0.2,0.3-0.3,0.6-0.5,0.9   c-0.1,0.3-0.2,0.6-0.3,0.9C51,47.3,51,47.7,51,48c0,0.3,0,0.6,0.1,1C51.2,49.3,51.3,49.6,51.4,49.9z"/><path d="M41.2,52.2c0.3,0.2,0.6,0.3,0.9,0.5c0.3,0.1,0.6,0.2,0.9,0.3c0.3,0.1,0.6,0.1,1,0.1c1.3,0,2.6-0.5,3.5-1.5   c0.2-0.2,0.4-0.5,0.6-0.8c0.2-0.3,0.3-0.6,0.5-0.9c0.1-0.3,0.2-0.6,0.3-0.9c0.1-0.3,0.1-0.7,0.1-1c0-1.3-0.5-2.6-1.5-3.5   c-0.2-0.2-0.5-0.4-0.8-0.6c-0.3-0.2-0.6-0.3-0.9-0.5c-0.3-0.1-0.6-0.2-0.9-0.3c-0.6-0.1-1.3-0.1-1.9,0c-0.3,0.1-0.6,0.2-0.9,0.3   c-0.3,0.1-0.6,0.3-0.9,0.5c-0.3,0.2-0.5,0.4-0.8,0.6C39.5,45.4,39,46.7,39,48c0,1.3,0.5,2.6,1.5,3.5C40.7,51.8,40.9,52,41.2,52.2z"/><path d="M88.9,39.6C87.5,20.8,70.6,6,50,6S12.5,20.8,11.1,39.6C7.5,41.6,5,45.5,5,50c0,6.6,5.4,12,12,12h1v10c0,7.7,6.3,14,14,14   h36c7.7,0,14-6.3,14-14V62h1c6.6,0,12-5.4,12-12C95,45.5,92.5,41.6,88.9,39.6z M50,10c17.9,0,32.6,12.3,34.7,28.1   C84.2,38.1,83.6,38,83,38h-1v-2c0-7.7-6.3-14-14-14H32c-7.7,0-14,6.3-14,14v2h-1c-0.6,0-1.2,0.1-1.7,0.1C17.4,22.3,32.1,10,50,10z    M17,58c-4.4,0-8-3.6-8-8s3.6-8,8-8h1v16H17z M78,72c0,5.5-4.5,10-10,10H32c-5.5,0-10-4.5-10-10V36c0-5.5,4.5-10,10-10h36   c5.5,0,10,4.5,10,10V72z M83,58h-1V42h1c4.4,0,8,3.6,8,8S87.4,58,83,58z"/></g><text x="0" y="115" fill="#000000" font-size="5px" font-weight="bold" font-family="'Helvetica Neue', Helvetica, Arial-Unicode, Arial, Sans-serif">Created by Shastry</text><text x="0" y="120" fill="#000000" font-size="5px" font-weight="bold" font-family="'Helvetica Neue', Helvetica, Arial-Unicode, Arial, Sans-serif">from the Noun Project</text></svg>