<svg xmlns="http://www.w3.org/2000/svg" xmlns:xlink="http://www.w3.org/1999/xlink" version="1.1" x="0px" y="0px" viewBox="0 0 100 125" enable-background="new 0 0 100 100" xml:space="preserve"><g><path d="M85.456,21.04c-1.542-1.545-2.315-3.425-2.315-5.636c0-2.22,0.773-4.099,2.315-5.644C87,8.219,88.883,7.446,91.099,7.446   c2.136,0,3.994,0.773,5.578,2.314c1.58,1.545,2.374,3.424,2.374,5.644c0,2.211-0.794,4.09-2.374,5.636   c-1.584,1.542-3.442,2.315-5.578,2.315C88.883,23.354,87,22.581,85.456,21.04z"/><g><path d="M81.693,58.742c-1.937-2.338-11.854-12.774-26.479-17.803l2.399-2.782c4.468,1.491,10.982,4.848,15.041,7.725    l9.968-11.577c0,0,4.615-5.824,1.548-10.732c-2.042-3.267-5.466-3.692-6.891-3.692l-0.018,0.013c-0.044,0-0.085-0.013-0.128-0.013    H41.421c-2.481,0-4.493,2.012-4.493,4.493c0,2.48,2.012,4.492,4.493,4.492h24.22l-8.048,9.308    c-4.5-1.561-9.542-2.622-14.797-2.456c-3.008,0.097-5.651,0.638-8.043,1.422c-3.098-3.691-4.772-7.438-4.799-7.498l-3.07,1.339    c0.111,0.253,1.654,3.735,4.584,7.453c-2.421,1.095-4.6,2.371-6.644,3.591c-2.04,1.216-3.966,2.366-5.771,3.105    C8.319,48.642,4.166,41.994,4,41.72l-2.892,1.689c0.054,0.093,5.604,9.288,19.099,4.863c2.15-0.875,4.182-2.087,6.334-3.37    c2.292-1.367,4.625-2.755,7.238-3.837c1.941,1.984,4.281,3.834,7.023,5.068c2.744,1.235,5.385,2.024,7.722,2.534l-9.139,10.571    H21.09c-1.494,0-2.755,0.47-3.779,1.41c-1.022,0.938-1.536,2.15-1.536,3.638c0,1.412,0.517,2.601,1.547,3.58    c1.023,0.976,2.254,1.464,3.681,1.464h21.488c0.869,0,1.661-0.076,2.372-0.236c1.82-0.315,3.086-0.87,3.802-1.662l10.25-11.049    c0,0,9.907,4.568,14.192,9.188c7.861,8.475,6.651,25.105,6.637,25.424c-0.103,2.246,2.084,5.489,5.616,5.003    c2.96-0.408,4.186-3.268,4.186-5.819C89.546,90.179,90.567,69.452,81.693,58.742z M51.06,45.734    c-2.53-0.419-5.644-1.198-8.884-2.655c-1.781-0.802-3.374-1.939-4.788-3.208c1.695-0.438,3.507-0.74,5.517-0.806    c4.29-0.136,8.464,0.658,12.297,1.875L51.06,45.734z"/></g></g><text x="0" y="115" fill="#000000" font-size="5px" font-weight="bold" font-family="'Helvetica Neue', Helvetica, Arial-Unicode, Arial, Sans-serif">Created by Luis Prado</text><text x="0" y="120" fill="#000000" font-size="5px" font-weight="bold" font-family="'Helvetica Neue', Helvetica, Arial-Unicode, Arial, Sans-serif">from the Noun Project</text></svg>