<svg xmlns="http://www.w3.org/2000/svg" xmlns:xlink="http://www.w3.org/1999/xlink" version="1.1" x="0px" y="0px" viewBox="0 0 1000 1250" enable-background="new 0 0 1000 1000" xml:space="preserve"><g><path fill-rule="evenodd" clip-rule="evenodd" d="M219.091,213.942c0.95,0.272,2.822,0.715,4.626,1.344   c31.984,11.183,63.968,22.359,95.917,33.64c2.812,0.994,4.868,0.846,7.41-0.969c27.416-19.568,57.341-34.072,89.63-43.631   c2.905-0.862,4.458-2.312,5.733-4.966c23.344-48.689,46.781-97.333,70.209-145.981c2.533-5.259,6.426-7.43,11.389-6.427   c3.791,0.767,5.783,3.357,7.387,6.699c20.006,41.713,40.094,83.389,60.16,125.076c3.467,7.198,6.788,14.472,10.468,21.559   c0.819,1.582,2.675,3.159,4.378,3.667c32.786,9.786,63.141,24.526,90.98,44.402c2.15,1.531,3.871,1.709,6.318,0.845   c32.434-11.454,64.906-22.798,97.373-34.162c5.643-1.976,9.428-1.088,12.506,2.845c2.611,3.339,2.263,6.871,0.945,10.613   c-11.705,33.298-23.328,66.63-35.105,99.905c-1.047,2.951-0.896,5.098,0.815,7.813c14.731,23.35,26.104,48.263,33.814,74.79   c0.845,2.905,2.401,4.478,5.026,5.737c48.453,23.238,96.871,46.55,145.293,69.855c5.352,2.575,7.513,6.325,6.577,11.306   c-0.712,3.798-3.237,5.858-6.595,7.468c-36.371,17.437-72.703,34.957-109.047,52.454c-12.193,5.868-24.428,11.649-36.528,17.703   c-1.688,0.843-3.412,2.813-3.939,4.606c-8.898,30.44-22.202,58.793-39.884,85.09c-1.49,2.211-1.537,4.02-0.689,6.424   c13.439,38.157,26.793,76.338,40.164,114.518c2.061,5.875,1.172,9.781-2.883,12.83c-3.225,2.424-6.559,2.244-10.236,0.942   c-24.287-8.596-48.617-17.073-72.934-25.593c-15.441-5.408-30.862-10.881-46.359-16.117c-1.658-0.557-4.135-0.335-5.631,0.542   c-22.578,13.235-46.35,23.63-71.488,30.956c-1.602,0.467-3.152,2.461-3.955,4.115c-21.992,45.48-43.883,91.008-65.789,136.527   c-1.396,2.903-2.84,5.787-4.154,8.726c-1.767,3.948-4.744,6.007-9.07,6.007c-4.32,0.002-7.215-2.087-9.084-5.986   c-11.909-24.877-23.881-49.72-35.834-74.571c-11.395-23.694-22.822-47.372-34.143-71.095c-1.1-2.305-2.552-3.467-5.012-4.179   c-24.377-7.078-47.527-17.044-69.324-30.065c-2.602-1.555-4.763-1.717-7.565-0.728c-39.247,13.826-78.544,27.509-117.783,41.36   c-4.478,1.578-8.316,1.532-11.719-1.953c-3.279-3.353-3.318-7.084-1.79-11.416c13.462-38.144,26.754-76.352,40.217-114.499   c0.928-2.627,0.58-4.411-0.934-6.658c-17.702-26.285-31.082-54.616-39.77-85.114c-0.761-2.668-2.297-3.998-4.642-5.122   c-48.331-23.199-96.622-46.478-144.959-69.659c-3.642-1.746-6.28-3.996-6.771-8.173c-0.571-4.86,1.438-8.137,6.56-10.604   c32.163-15.486,64.331-30.959,96.497-46.438c16.605-7.991,33.236-15.931,49.768-24.075c1.579-0.776,3.155-2.647,3.668-4.332   c8.181-26.923,19.527-52.392,34.655-76.129c1.655-2.596,1.744-4.743,0.758-7.535c-11.8-33.405-23.506-66.844-35.206-100.282   C207.04,220.787,211.25,214.074,219.091,213.942z M594.905,766.162c48.641-17.349,89.533-45.337,123.017-84.118   c23.863-27.638,41.762-58.73,53.857-93.635c-10.99,1.568-18.407-3.397-24.638-10.608c-7.023-8.135-11.435-17.734-14.476-27.953   c-7.087-23.826-8.089-48.246-6.494-72.832c1.178-18.181,5.233-35.706,13.757-51.955c6.52-12.432,15.179-22.169,31.181-22.25   c-13.884-38.797-34.77-72.784-62.893-102.311c-31.857-33.454-69.59-57.85-113.223-73.366c-0.986,12.935-4.569,19.989-15.73,26.865   c-7.383,4.547-15.418,8.479-23.664,11.098c-23.564,7.479-47.947,8.177-72.403,6.629c-18.177-1.15-35.714-5.188-51.981-13.674   c-12.416-6.477-22.225-15.068-22.462-30.89c-46.825,16.732-86.554,43.383-119.454,80.144   c-25.193,28.15-44.085,60.057-56.765,96.029c10.558-1.25,17.922,3.562,24.075,10.668c7.038,8.129,11.478,17.718,14.528,27.93   c7.111,23.82,8.119,48.24,6.541,72.828c-1.157,18.045-5.146,35.455-13.537,51.625c-6.662,12.836-15.461,22.908-31.925,22.674   c14.758,41.764,37.55,77.988,68.597,109.014c29.489,29.468,87.483,65.484,108.852,67.637c-1.923-7.336,0.829-13.466,5.146-19.029   c1.877-2.42,4.145-4.623,6.539-6.545c8.578-6.889,18.459-11.295,28.996-14.129c25.75-6.93,51.945-7.844,78.314-5.02   c16.42,1.759,32.154,6.137,46.608,14.344C587.006,741.99,595.532,750.911,594.905,766.162z M918.678,496.102   c-1.213-0.748-1.704-1.115-2.25-1.381c-49.1-23.627-98.211-47.226-147.279-70.915c-2.46-1.189-4.433-0.802-5.832,1.063   c-2.606,3.475-5.328,7.001-7.153,10.904c-7.935,16.984-10.985,35.071-11.246,53.695c-0.268,19.166,0.927,38.22,7.179,56.496   c2.303,6.738,5.822,13.17,9.525,19.295c2.6,4.301,4.408,4.271,8.725,2.19c33.314-16.026,66.628-32.062,99.94-48.088   C886.178,511.715,902.075,504.08,918.678,496.102z M85.231,495.998c1.721,0.897,2.729,1.463,3.767,1.96   c48.058,23.124,96.117,46.237,144.178,69.354c4.625,2.225,6.269,2.27,9.056-2.126c3.42-5.392,6.619-11.126,8.711-17.127   c11.135-31.952,10.258-64.417,2.325-96.779c-2.045-8.338-6.383-16.243-10.499-23.899c-2.713-5.045-4.861-5.075-9.849-2.675   c-47.942,23.062-95.884,46.124-143.822,69.194C87.982,494.44,86.916,495.084,85.231,495.998z M501.859,79.257   c-0.943,1.851-1.556,2.981-2.113,4.136c-23.064,47.939-46.128,95.881-69.188,143.821c-2.222,4.62-2.264,6.269,2.131,9.057   c5.393,3.419,11.123,6.618,17.125,8.709c31.953,11.136,64.414,10.259,96.779,2.324c8.336-2.043,16.24-6.38,23.897-10.498   c5.045-2.711,5.073-4.861,2.675-9.847c-23.062-47.941-46.123-95.884-69.195-143.819C503.436,82.024,502.789,80.96,501.859,79.257z    M501.967,912.657c0.945-1.837,1.557-2.969,2.111-4.122c23.07-47.939,46.129-95.881,69.191-143.822   c2.232-4.645,2.282-6.27-2.107-9.062c-5.393-3.422-11.12-6.624-17.12-8.715c-31.952-11.139-64.416-10.268-96.78-2.337   c-8.339,2.044-16.243,6.379-23.901,10.487c-5.045,2.711-5.087,4.885-2.698,9.846c23.061,47.939,46.121,95.88,69.191,143.818   C500.392,909.869,501.031,910.937,501.967,912.657z M739.031,686.984c-17.672,21.674-37.209,40.213-59.629,56.582   c30.336,10.621,60.013,21.016,90.544,31.707C759.545,745.561,749.451,716.74,739.031,686.984z M265.07,687.295   c-10.352,29.572-20.43,58.367-30.799,87.99c30.555-10.71,60.077-21.055,90.311-31.654   C302.023,727.231,282.658,708.791,265.07,687.295z M744.699,311.687c8.197-23.397,16.598-47.384,25.253-72.104   c-24.169,8.47-47.591,16.678-70.267,24.623C714.762,280.106,729.707,295.872,744.699,311.687z M304.27,264.103   c-22.67-7.937-45.901-16.069-70.002-24.506c8.664,24.744,17.018,48.599,25.132,71.774   C274.252,295.723,289.201,279.977,304.27,264.103z"/><path fill-rule="evenodd" clip-rule="evenodd" d="M394.215,496.662c-0.1-59.708,47.639-107.004,108.162-107.154   c58.667-0.147,107.301,48.725,107.232,107.753c-0.07,58.443-48.809,107.723-106.546,107.909   C451.564,605.33,394.654,568.139,394.215,496.662z M537.641,417.122c-37.299-18.154-88.15-6.841-113.16,37.54   c-23.967,42.526-8.486,95.709,34.671,119.871c42.608,23.85,95.495,8.647,119.522-34.482c23.08-41.435,9.355-89.523-24.304-112.817   c-1.771,2.987-3.538,5.964-5.297,8.942c-12.903,21.869-25.776,43.754-38.731,65.591c-3.166,5.335-8.459,6.586-13.583,3.507   c-4.944-2.971-6.205-8.022-3.247-13.333c1.568-2.813,3.27-5.553,4.907-8.33C511.449,461.524,524.475,439.44,537.641,417.122z"/><path fill-rule="evenodd" clip-rule="evenodd" d="M264.907,395.339c-3.938-0.086-5.69-2.479-4.361-6.049   c1.393-3.738,3.028-7.399,4.742-11.004c26.483-55.651,67.962-95.856,124.401-120.613c2.705-1.187,5.637-2.845,7.648,1.029   c1.58,3.038,0.018,6.067-3.975,7.814c-57.495,25.179-98.524,66.656-123.132,124.384   C269.155,393.421,267.803,395.499,264.907,395.339z"/><path fill-rule="evenodd" clip-rule="evenodd" fill="#000000" d="M833.227,476.815c-2.1-0.818-3.314-1.229-4.48-1.751   c-20.549-9.218-41.084-18.455-61.637-27.665c-2.633-1.18-5.041-2.453-3.725-5.992c1.156-3.109,4.201-4.255,7.648-2.716   c21.264,9.503,42.502,19.066,63.747,28.615c2.222,0.998,3.958,2.67,2.71,5.091C836.555,474.211,834.562,475.483,833.227,476.815z"/><path fill-rule="evenodd" clip-rule="evenodd" fill="#000000" d="M119.86,500.052c-1.343-1.421-3.377-2.747-4.16-4.601   c-1.126-2.668,0.938-4.13,3.295-5.153c19.96-8.646,39.899-17.339,59.849-26.009c14.519-6.311,29.045-12.607,43.57-18.902   c1.061-0.46,2.115-1.016,3.23-1.246c3.122-0.646,5.345,0.657,6.365,3.62c0.991,2.876-0.89,4.269-3.195,5.271   c-10.033,4.363-20.071,8.712-30.103,13.076c-24.434,10.62-48.865,21.251-73.305,31.864   C123.882,498.631,122.292,499.145,119.86,500.052z"/><path fill-rule="evenodd" clip-rule="evenodd" fill="#000000" d="M503.871,116.439c-0.854,2.192-1.277,3.402-1.787,4.571   c-15.101,34.434-30.206,68.864-45.324,103.291c-1.177,2.677-2.396,5.45-6.221,3.87c-3.047-1.26-4.104-4.219-2.557-7.746   c15.359-35.022,30.766-70.023,46.145-105.037c0.957-2.18,2.383-4.262,4.859-3.219C500.943,112.992,502.373,115.07,503.871,116.439z   "/><path fill-rule="evenodd" clip-rule="evenodd" fill="#000000" d="M506.873,874.314c-1.278,1.314-2.451,3.263-4.166,4.104   c-2.482,1.216-4.345-0.234-5.523-2.68c-4.637-9.635-9.336-19.242-14.016-28.863c-8.684-17.842-17.367-35.687-26.049-53.531   c-0.394-0.809-0.795-1.622-1.133-2.459c-1.229-3.02-0.328-5.367,2.527-6.77c2.996-1.476,4.863,0.059,6.16,2.732   c7.027,14.494,14.063,28.982,21.108,43.469c6.312,12.979,12.646,25.945,18.952,38.929   C505.405,870.623,505.934,872.078,506.873,874.314z"/><path fill-rule="evenodd" clip-rule="evenodd" fill="#000000" d="M459.023,777.002c-1.236,1.201-2.441,3.299-4.019,3.631   c-1.55,0.324-4.277-0.64-5.094-1.922c-2.751-4.333-5.026-8.991-7.195-13.654c-1.343-2.889-0.319-5.324,2.651-6.672   c2.85-1.291,4.686,0.108,5.967,2.558c2.148,4.106,4.277,8.222,6.363,12.363C458.149,774.205,458.389,775.21,459.023,777.002z"/></g><text x="0" y="1015" fill="#000000" font-size="5px" font-weight="bold" font-family="'Helvetica Neue', Helvetica, Arial-Unicode, Arial, Sans-serif">Created by Samuel Schoenberger</text><text x="0" y="1020" fill="#000000" font-size="5px" font-weight="bold" font-family="'Helvetica Neue', Helvetica, Arial-Unicode, Arial, Sans-serif">from the Noun Project</text></svg>