<svg xmlns="http://www.w3.org/2000/svg" xmlns:xlink="http://www.w3.org/1999/xlink" version="1.1" x="0px" y="0px" viewBox="0 0 100 125" style="enable-background:new 0 0 100 100;" xml:space="preserve"><g><path d="M60,45c0.3,0,0.7,0,1-0.1c0.3-0.1,0.6-0.2,0.9-0.3c0.3-0.1,0.6-0.3,0.9-0.5c0.3-0.2,0.5-0.4,0.8-0.6   c0.2-0.2,0.4-0.5,0.6-0.8c0.2-0.3,0.3-0.6,0.5-0.9c0.1-0.3,0.2-0.6,0.3-0.9c0.1-0.3,0.1-0.7,0.1-1c0-0.3,0-0.7-0.1-1   c-0.1-0.3-0.2-0.6-0.3-0.9c-0.1-0.3-0.3-0.6-0.5-0.9c-0.2-0.3-0.4-0.5-0.6-0.8c-0.2-0.2-0.5-0.4-0.8-0.6c-0.3-0.2-0.6-0.3-0.9-0.5   c-0.3-0.1-0.6-0.2-0.9-0.3c-0.7-0.1-1.3-0.1-2,0c-0.3,0.1-0.6,0.2-0.9,0.3c-0.3,0.1-0.6,0.3-0.9,0.5c-0.3,0.2-0.5,0.4-0.8,0.6   c-0.2,0.2-0.4,0.5-0.6,0.8c-0.2,0.3-0.3,0.6-0.5,0.9c-0.1,0.3-0.2,0.6-0.3,0.9C55,39.3,55,39.7,55,40c0,1.3,0.5,2.6,1.5,3.5   C57.4,44.5,58.7,45,60,45z"/><path d="M37.2,44.2c0.3,0.2,0.6,0.3,0.9,0.5c0.3,0.1,0.6,0.2,0.9,0.3c0.3,0.1,0.7,0.1,1,0.1c0.3,0,0.7,0,1-0.1   c0.3-0.1,0.6-0.2,0.9-0.3c0.3-0.1,0.6-0.3,0.9-0.5c0.3-0.2,0.5-0.4,0.8-0.6c0.9-0.9,1.5-2.2,1.5-3.5c0-1.3-0.5-2.6-1.5-3.5   c-0.2-0.2-0.5-0.4-0.8-0.6c-0.3-0.2-0.6-0.3-0.9-0.5c-0.3-0.1-0.6-0.2-0.9-0.3c-1.6-0.3-3.4,0.2-4.5,1.4c-0.2,0.2-0.4,0.5-0.6,0.8   c-0.2,0.3-0.3,0.6-0.5,0.9c-0.1,0.3-0.2,0.6-0.3,0.9C35,39.3,35,39.7,35,40c0,1.3,0.5,2.6,1.5,3.5C36.7,43.8,36.9,44,37.2,44.2z"/><path d="M64,55c-2.9,0-4.2,2.3-5.2,4c-0.8,1.4-1.3,2-1.8,2s-0.9-0.6-1.8-2c-1-1.7-2.3-4-5.2-4c-2.9,0-4.2,2.3-5.2,4   c-0.8,1.4-1.3,2-1.8,2c-0.5,0-0.9-0.6-1.8-2c-1-1.7-2.3-4-5.2-4c-1.1,0-2,0.9-2,2s0.9,2,2,2c0.5,0,0.9,0.6,1.8,2c1,1.7,2.3,4,5.2,4   c2.9,0,4.2-2.3,5.2-4c0.8-1.4,1.3-2,1.8-2c0.5,0,0.9,0.6,1.8,2c1,1.7,2.3,4,5.2,4s4.2-2.3,5.2-4c0.8-1.4,1.3-2,1.8-2   c1.1,0,2-0.9,2-2S65.1,55,64,55z"/><path d="M68,18H32c-7.7,0-14,6.3-14,14v36c0,7.7,6.3,14,14,14h36c7.7,0,14-6.3,14-14V32C82,24.3,75.7,18,68,18z M78,68   c0,5.5-4.5,10-10,10H32c-5.5,0-10-4.5-10-10V32c0-5.5,4.5-10,10-10h36c5.5,0,10,4.5,10,10V68z"/></g><text x="0" y="115" fill="#000000" font-size="5px" font-weight="bold" font-family="'Helvetica Neue', Helvetica, Arial-Unicode, Arial, Sans-serif">Created by Shastry</text><text x="0" y="120" fill="#000000" font-size="5px" font-weight="bold" font-family="'Helvetica Neue', Helvetica, Arial-Unicode, Arial, Sans-serif">from the Noun Project</text></svg>