<svg xmlns="http://www.w3.org/2000/svg" xmlns:xlink="http://www.w3.org/1999/xlink" version="1.1" x="0px" y="0px" viewBox="0 0 100 125" style="enable-background:new 0 0 100 100;" xml:space="preserve"><g><path d="M60.6,60.6C57.8,63.4,54,65,50,65s-7.8-1.6-10.6-4.4c-0.8-0.8-2-0.8-2.8,0c-0.8,0.8-0.8,2,0,2.8C40.2,67,44.9,69,50,69   s9.8-2,13.4-5.6c0.8-0.8,0.8-2,0-2.8C62.7,59.8,61.4,59.8,60.6,60.6z"/><path d="M68,18H32c-7.7,0-14,6.3-14,14v36c0,7.7,6.3,14,14,14h36c7.7,0,14-6.3,14-14V32C82,24.3,75.7,18,68,18z M78,68   c0,5.5-4.5,10-10,10H32c-5.5,0-10-4.5-10-10V32c0-5.5,4.5-10,10-10h36c5.5,0,10,4.5,10,10V68z"/><path d="M45,39.7l0.4-0.4c1-1,1.5-2.4,1.5-3.8s-0.6-2.8-1.5-3.8c-2.1-2.1-5.4-2.1-7.4,0h0l0,0c-1-1-2.3-1.6-3.7-1.6   c-1.4,0-2.7,0.6-3.7,1.6c-2,2.1-2,5.5,0,7.6l0.4,0.4L38,46L45,39.7z"/><path d="M62,31.6L62,31.6L62,31.6C61,30.5,59.7,30,58.3,30c-1.4,0-2.7,0.6-3.7,1.6c-2,2.1-2,5.5,0,7.6l0.4,0.4L62,46l7-6.3l0.4-0.4   c1-1,1.5-2.4,1.5-3.8s-0.6-2.8-1.5-3.8C67.4,29.5,64.1,29.5,62,31.6z"/></g><text x="0" y="115" fill="#000000" font-size="5px" font-weight="bold" font-family="'Helvetica Neue', Helvetica, Arial-Unicode, Arial, Sans-serif">Created by Shastry</text><text x="0" y="120" fill="#000000" font-size="5px" font-weight="bold" font-family="'Helvetica Neue', Helvetica, Arial-Unicode, Arial, Sans-serif">from the Noun Project</text></svg>